<svg width="500" height="105" viewBox="0 0 500 105" fill="none" xmlns="http://www.w3.org/2000/svg">
<path d="M130.842 81.757C128.317 81.3584 126.04 80.77 123.971 80.0298V71.261C128.868 72.8553 133.499 73.6335 137.883 73.6335C141.698 73.6335 144.526 72.8933 146.405 71.4128C148.265 69.9324 149.195 67.7877 149.195 64.9407C149.195 63.3463 148.911 62.0177 148.341 60.9169C147.772 59.816 146.823 58.8481 145.494 57.994C144.166 57.1399 142.362 56.3237 140.047 55.5455L136.327 54.2929C127.235 51.1991 122.68 45.4292 122.68 37.021C122.68 33.263 123.496 30.0364 125.148 27.3412C126.799 24.646 129.247 22.5772 132.512 21.1347C135.776 19.7112 139.819 18.99 144.602 18.99C146.766 18.99 148.93 19.1229 151.055 19.4076C153.181 19.6923 155.06 20.0718 156.673 20.5843V29.3151C153.314 28.2523 149.575 27.7208 145.475 27.7208C137.181 27.7208 133.024 30.5678 133.024 36.2428C133.024 37.7802 133.29 39.0519 133.802 40.0768C134.315 41.1017 135.188 42.0317 136.384 42.8289C137.598 43.645 139.269 44.4042 141.413 45.1255L145.134 46.3782C149.86 47.9725 153.447 50.1742 155.895 53.0022C158.325 55.8302 159.558 59.5124 159.558 64.0486C159.558 67.8636 158.723 71.1471 157.034 73.8802C155.345 76.6134 152.896 78.7201 149.67 80.1816C146.443 81.6431 142.552 82.3643 138.016 82.3643C135.757 82.3643 133.366 82.1745 130.842 81.757Z" fill="white"/>
<path d="M166.448 29.9226C165.518 29.0496 165.063 27.8159 165.063 26.2215C165.063 24.6272 165.518 23.3935 166.448 22.5014C167.378 21.6284 168.745 21.1729 170.548 21.1729C172.351 21.1729 173.737 21.6284 174.667 22.5204C175.597 23.4125 176.071 24.6462 176.071 26.2215C176.071 27.8159 175.616 29.0496 174.686 29.9226C173.756 30.7957 172.389 31.2323 170.548 31.2323C168.745 31.2323 167.378 30.7957 166.448 29.9226Z" fill="white"/>
<path d="M175.976 36.0154H165.822V81.5675H175.976V36.0154Z" fill="white"/>
<path d="M184.972 36.0152H193.4L194.159 40.8931H194.709C196.152 39.09 197.86 37.7044 199.815 36.7364C201.77 35.7685 203.933 35.2939 206.306 35.2939C210.178 35.2939 213.253 36.5087 215.511 38.9381C217.77 41.3676 218.909 45.2964 218.909 50.6868V81.5483H208.811V51.4649C208.811 48.9026 208.299 47.0806 207.274 45.9987C206.249 44.9168 204.788 44.3664 202.89 44.3664C201.447 44.3664 199.986 44.727 198.543 45.4293C197.101 46.1315 195.943 47.2134 195.07 48.6749V81.5863H184.972V36.0152Z" fill="white"/>
<path d="M239.711 92.6517C243.583 92.6517 246.43 91.7597 248.271 89.9755C250.112 88.1914 251.024 85.1926 251.024 80.96V76.9552H250.53C249.562 78.5496 248.214 79.8022 246.525 80.7512C244.836 81.7002 242.9 82.1747 240.717 82.1747C237.984 82.1747 235.498 81.4155 233.239 79.8971C230.981 78.3787 229.159 75.9303 227.792 72.5709C226.406 69.2114 225.723 64.9029 225.723 59.6644C225.723 51.541 227.545 45.4484 231.17 41.4246C234.796 37.3819 240.3 35.351 247.683 35.332C249.961 35.332 252.314 35.5218 254.744 35.9204C257.173 36.319 259.299 36.8315 261.14 37.5147V79.3088C261.14 86.8438 259.432 92.3291 256.053 95.7265C252.656 99.1239 247.493 100.813 240.566 100.813C240.205 100.813 240.072 100.813 239.711 100.794V92.6517ZM248.309 72.7796C249.467 72.2102 250.378 71.4131 251.042 70.4261V43.7022C249.657 43.3985 248.252 43.2467 246.867 43.2467C243.28 43.2467 240.585 44.4235 238.781 46.796C236.978 49.1685 236.086 53.1353 236.086 58.7344C236.086 62.6253 236.428 65.6811 237.13 67.8638C237.832 70.0465 238.8 71.5649 240.034 72.4C241.268 73.2351 242.843 73.6527 244.741 73.6527C245.956 73.6527 247.152 73.368 248.309 72.7796Z" fill="white"/>
<path d="M270.155 81.5863V14.0933H280.253V81.5673H270.155V81.5863Z" fill="white"/>
<path d="M321.477 62.0368H297.638C297.752 65.1306 298.208 67.541 299.024 69.3062C299.84 71.0523 301.074 72.305 302.744 73.0642C304.414 73.8234 306.635 74.184 309.425 74.184C312.291 74.184 315.612 73.6526 319.37 72.5897V80.8081C317.34 81.3585 315.442 81.776 313.676 82.0228C311.911 82.2695 310.089 82.4024 308.229 82.4024C303.389 82.4024 299.441 81.6052 296.386 79.9919C293.33 78.3786 291.071 75.8543 289.591 72.3999C288.11 68.9266 287.37 64.3524 287.37 58.6394C287.37 50.8386 288.908 45.0117 291.982 41.1208C295.057 37.2299 299.403 35.2939 305.041 35.2939C316.011 35.2939 321.496 43.1707 321.496 58.9241V62.0368H321.477ZM301.074 43.4174C300.03 44.1956 299.195 45.5621 298.587 47.5171C297.98 49.472 297.657 52.1482 297.619 55.5836H311.949C311.93 52.1672 311.627 49.472 311.076 47.5171C310.526 45.5621 309.748 44.1956 308.742 43.4174C307.736 42.6392 306.483 42.2406 304.984 42.2406C303.427 42.2406 302.118 42.6392 301.074 43.4174Z" fill="white"/>
<path d="M334.949 81.7571C332.425 81.3585 330.147 80.7702 328.078 80.0299V71.2612C332.975 72.8555 337.606 73.6337 341.991 73.6337C345.806 73.6337 348.634 72.8935 350.513 71.413C352.373 69.9326 353.303 67.7878 353.303 64.9408C353.303 63.3465 353.018 62.0179 352.449 60.917C351.879 59.8162 350.93 58.8482 349.602 57.9941C348.273 57.14 346.47 56.3239 344.155 55.5457L340.434 54.293C331.324 51.1803 326.788 45.4104 326.788 37.0022C326.788 33.2442 327.604 30.0176 329.255 27.3224C330.906 24.6272 333.355 22.5584 336.619 21.1159C339.884 19.6924 343.927 18.9712 348.71 18.9712C350.873 18.9712 353.037 19.1041 355.163 19.3888C357.289 19.6735 359.168 20.0531 360.781 20.5655V29.2963C357.422 28.2334 353.683 27.702 349.583 27.702C341.289 27.702 337.132 30.549 337.132 36.224C337.132 37.7614 337.398 39.0331 337.91 40.058C338.423 41.0829 339.296 42.013 340.491 42.8101C341.706 43.6263 343.376 44.3855 345.521 45.1067L349.241 46.3594C353.967 47.9537 357.554 50.1554 360.003 52.9834C362.432 55.8114 363.666 59.4936 363.666 64.0298C363.666 67.8448 362.831 71.1283 361.142 73.8614C359.452 76.5946 357.004 78.7013 353.777 80.1628C350.551 81.6243 346.66 82.3455 342.124 82.3455C339.846 82.3645 337.455 82.1747 334.949 81.7571Z" fill="white"/>
<path d="M393.388 73.1402V81.5673C391.187 82.0987 388.909 82.3645 386.536 82.3645C381.772 82.3645 378.166 81.1118 375.68 78.5874C373.193 76.0631 371.96 72.0583 371.96 66.5921V44.0817H364.994V36.0152H371.96L373.763 19.7683H382.076V36.0152H393.009V44.0817H382.076V65.3773C382.076 67.4651 382.304 69.1164 382.778 70.3121C383.253 71.5079 383.993 72.362 384.999 72.8744C386.005 73.3869 387.353 73.6526 389.042 73.6526C390.067 73.6526 391.509 73.4818 393.388 73.1402Z" fill="white"/>
<path d="M401.057 76.7082C397.906 72.9122 396.331 66.9904 396.331 58.9808C396.331 43.1895 402.424 35.3127 414.59 35.3127C420.436 35.3127 424.934 37.2487 428.104 41.1206C431.254 44.9926 432.849 50.9143 432.849 58.9049C432.849 74.5824 426.756 82.4212 414.609 82.4212C408.725 82.4212 404.208 80.5042 401.057 76.7082ZM418.917 73.3487C420.037 72.4567 420.91 70.8623 421.537 68.5847C422.163 66.3071 422.448 63.1375 422.448 59.0568C422.448 54.8812 422.144 51.6166 421.537 49.282C420.929 46.9475 420.056 45.3152 418.898 44.4042C417.741 43.4931 416.317 43.0186 414.59 43.0186C412.844 43.0186 411.382 43.4742 410.243 44.3852C409.105 45.2962 408.232 46.8906 407.624 49.2061C407.017 51.5217 406.713 54.7103 406.713 58.81C406.713 62.9667 407.017 66.1933 407.624 68.4898C408.232 70.8054 409.105 72.3997 410.243 73.3108C411.363 74.2218 412.825 74.6773 414.609 74.6773C416.355 74.6963 417.778 74.2408 418.917 73.3487Z" fill="white"/>
<path d="M439.889 36.015H448.241L449.038 42.2784H449.531C450.651 39.9439 452.151 38.2167 454.067 37.1159C455.965 36.015 458.129 35.4646 460.559 35.4646C461.527 35.4646 462.495 35.5405 463.444 35.7113V45.1444C462.495 44.9736 461.337 44.8977 459.932 44.8977C457.901 44.8977 455.984 45.3722 454.162 46.3022C452.359 47.2322 450.955 48.5229 449.987 50.1741V81.5671H439.889V36.015Z" fill="white"/>
<path d="M499.981 62.0368H476.142C476.256 65.1306 476.712 67.541 477.528 69.3062C478.344 71.0523 479.578 72.305 481.248 73.0642C482.918 73.8234 485.139 74.184 487.929 74.184C490.795 74.184 494.116 73.6526 497.874 72.5897V80.8081C495.843 81.3585 493.945 81.776 492.18 82.0228C490.415 82.2695 488.593 82.4024 486.733 82.4024C481.893 82.4024 477.945 81.6052 474.89 79.9919C471.834 78.3786 469.575 75.8543 468.095 72.3999C466.614 68.9266 465.874 64.3524 465.874 58.6394C465.874 50.8386 467.411 45.0117 470.486 41.1208C473.561 37.2299 477.907 35.2939 483.544 35.2939C494.515 35.2939 500 43.1707 500 58.9241V62.0368H499.981ZM479.578 43.4174C478.534 44.1956 477.699 45.5621 477.091 47.5171C476.484 49.472 476.161 52.1482 476.123 55.5836H490.453C490.434 52.1672 490.131 49.472 489.58 47.5171C489.03 45.5621 488.251 44.1956 487.246 43.4174C486.24 42.6392 484.987 42.2406 483.487 42.2406C481.931 42.2406 480.622 42.6392 479.578 43.4174Z" fill="white"/>
<path d="M54.664 0C65.8699 3.11664 76.0796 10.9706 80.313 20.5698C86.7875 36.1531 85.2933 55.8502 78.1963 67.5688C72.2198 77.168 63.0061 82.2794 52.4228 82.1547C35.9876 82.03 22.6651 68.9401 22.5406 52.4842C22.5406 36.0284 35.4895 22.4398 52.4228 22.4398C55.162 22.4398 59.1116 22.8197 63.594 24.6897C63.594 24.6897 60.3715 22.781 52.0955 21.4989C28.3142 18.3823 0.253376 36.4024 6.72787 77.9161C15.6925 93.8733 32.8748 104.719 52.4228 104.595C81.1845 104.47 104.717 80.908 104.592 51.9856C104.592 24.3098 82.0561 0.747994 54.664 0Z" fill="white"/>
<path d="M74.2119 22.0657C70.2276 13.7131 62.01 7.10579 51.9247 4.48781C49.6835 3.86448 47.3178 3.61514 44.7031 3.49048C40.8434 3.49048 37.1081 3.98916 33.2483 4.98648C23.661 7.85379 16.9375 13.4637 12.9532 17.827C7.84835 23.6863 4.48659 29.7949 2.49444 35.9036C2.49444 36.0282 2.36993 36.1529 2.36993 36.4022C2.24542 36.9009 1.74738 38.3969 1.74738 38.7709C1.62287 39.0202 1.62287 39.3942 1.49836 39.6435C1.37385 40.1422 1.24935 40.6409 1.12484 41.1395C1.12484 41.2642 1.12484 41.3889 1.00033 41.5135C-2.23692 57.5954 3.14093 72.0273 6.37817 77.3879C7.18788 78.7287 7.85279 79.8474 8.51915 80.8737C1.1731 40.9807 22.2914 21.941 46.3218 21.4424C58.8972 21.193 71.4727 26.3043 77.5736 36.5269C77.2001 30.9169 76.8266 27.8003 74.2119 22.0657Z" fill="white"/>
</svg>
