<svg width="500" height="105" viewBox="0 0 500 105" fill="none" xmlns="http://www.w3.org/2000/svg">
<path d="M130.842 81.7569C128.317 81.3583 126.04 80.77 123.971 80.0297V71.261C128.868 72.8553 133.499 73.6335 137.883 73.6335C141.698 73.6335 144.526 72.8933 146.405 71.4128C148.265 69.9324 149.195 67.7876 149.195 64.9406C149.195 63.3463 148.911 62.0177 148.341 60.9168C147.772 59.816 146.823 58.848 145.494 57.9939C144.166 57.1398 142.362 56.3237 140.047 55.5455L136.327 54.2928C127.235 51.1991 122.68 45.4291 122.68 37.021C122.68 33.2629 123.496 30.0363 125.148 27.3412C126.799 24.646 129.247 22.5772 132.512 21.1347C135.776 19.7112 139.819 18.99 144.602 18.99C146.766 18.99 148.93 19.1228 151.055 19.4075C153.181 19.6922 155.06 20.0718 156.673 20.5843V29.3151C153.314 28.2522 149.575 27.7208 145.475 27.7208C137.181 27.7208 133.024 30.5678 133.024 36.2428C133.024 37.7802 133.29 39.0519 133.802 40.0768C134.315 41.1017 135.188 42.0317 136.384 42.8289C137.598 43.645 139.269 44.4042 141.413 45.1255L145.134 46.3781C149.86 47.9725 153.447 50.1742 155.895 53.0022C158.325 55.8302 159.558 59.5123 159.558 64.0486C159.558 67.8635 158.723 71.1471 157.034 73.8802C155.345 76.6133 152.896 78.7201 149.67 80.1816C146.443 81.643 142.552 82.3643 138.016 82.3643C135.757 82.3643 133.366 82.1745 130.842 81.7569Z" fill="white"/>
<path d="M166.448 29.9228C165.518 29.0497 165.063 27.816 165.063 26.2217C165.063 24.6273 165.518 23.3936 166.448 22.5016C167.378 21.6285 168.745 21.173 170.548 21.173C172.351 21.173 173.737 21.6285 174.667 22.5206C175.597 23.4126 176.071 24.6463 176.071 26.2217C176.071 27.816 175.616 29.0497 174.686 29.9228C173.756 30.7958 172.389 31.2324 170.548 31.2324C168.745 31.2324 167.378 30.7958 166.448 29.9228Z" fill="white"/>
<path d="M175.976 36.0155H165.822V81.5676H175.976V36.0155Z" fill="white"/>
<path d="M184.972 36.0153H193.4L194.159 40.8931H194.709C196.152 39.09 197.86 37.7045 199.815 36.7365C201.77 35.7685 203.933 35.294 206.306 35.294C210.178 35.294 213.253 36.5087 215.511 38.9382C217.77 41.3676 218.909 45.2965 218.909 50.6868V81.5483H208.811V51.465C208.811 48.9027 208.299 47.0806 207.274 45.9988C206.249 44.9169 204.788 44.3665 202.89 44.3665C201.447 44.3665 199.986 44.7271 198.543 45.4293C197.101 46.1316 195.943 47.2135 195.07 48.6749V81.5863H184.972V36.0153Z" fill="white"/>
<path d="M239.711 92.6516C243.583 92.6516 246.43 91.7596 248.271 89.9754C250.112 88.1913 251.024 85.1925 251.024 80.9599V76.9551H250.53C249.562 78.5495 248.214 79.8022 246.525 80.7512C244.836 81.7002 242.9 82.1747 240.717 82.1747C237.984 82.1747 235.498 81.4154 233.239 79.897C230.981 78.3786 229.159 75.9302 227.792 72.5708C226.406 69.2113 225.723 64.9028 225.723 59.6643C225.723 51.5409 227.545 45.4483 231.17 41.4245C234.796 37.3818 240.3 35.3509 247.683 35.3319C249.961 35.3319 252.314 35.5217 254.744 35.9203C257.173 36.3189 259.299 36.8314 261.14 37.5146V79.3087C261.14 86.8437 259.432 92.329 256.053 95.7264C252.656 99.1238 247.493 100.813 240.566 100.813C240.205 100.813 240.072 100.813 239.711 100.794V92.6516ZM248.309 72.7795C249.467 72.2101 250.378 71.413 251.042 70.426V43.7021C249.657 43.3984 248.252 43.2466 246.867 43.2466C243.28 43.2466 240.585 44.4234 238.781 46.7959C236.978 49.1684 236.086 53.1352 236.086 58.7343C236.086 62.6252 236.428 65.681 237.13 67.8637C237.832 70.0464 238.8 71.5648 240.034 72.3999C241.268 73.2351 242.843 73.6526 244.741 73.6526C245.956 73.6526 247.152 73.3679 248.309 72.7795Z" fill="white"/>
<path d="M270.155 81.5863V14.0933H280.253V81.5673H270.155V81.5863Z" fill="white"/>
<path d="M321.477 62.0369H297.638C297.752 65.1306 298.208 67.5411 299.024 69.3062C299.84 71.0524 301.074 72.3051 302.744 73.0643C304.414 73.8235 306.635 74.1841 309.425 74.1841C312.291 74.1841 315.612 73.6526 319.37 72.5898V80.8081C317.34 81.3585 315.442 81.7761 313.676 82.0228C311.911 82.2696 310.089 82.4024 308.229 82.4024C303.389 82.4024 299.441 81.6053 296.386 79.992C293.33 78.3787 291.071 75.8543 289.591 72.4C288.11 68.9266 287.37 64.3524 287.37 58.6394C287.37 50.8387 288.908 45.0118 291.982 41.1209C295.057 37.23 299.403 35.294 305.041 35.294C316.011 35.294 321.496 43.1707 321.496 58.9241V62.0369H321.477ZM301.074 43.4175C300.03 44.1957 299.195 45.5622 298.587 47.5171C297.98 49.4721 297.657 52.1483 297.619 55.5837H311.949C311.93 52.1673 311.627 49.4721 311.076 47.5171C310.526 45.5622 309.748 44.1957 308.742 43.4175C307.736 42.6393 306.483 42.2407 304.984 42.2407C303.427 42.2407 302.118 42.6393 301.074 43.4175Z" fill="white"/>
<path d="M334.949 81.7571C332.425 81.3585 330.147 80.7701 328.078 80.0299V71.2611C332.975 72.8554 337.606 73.6336 341.991 73.6336C345.806 73.6336 348.634 72.8934 350.513 71.413C352.373 69.9325 353.303 67.7878 353.303 64.9408C353.303 63.3464 353.018 62.0178 352.449 60.917C351.879 59.8161 350.93 58.8482 349.602 57.9941C348.273 57.14 346.47 56.3238 344.155 55.5457L340.434 54.293C331.324 51.1802 326.788 45.4103 326.788 37.0022C326.788 33.2441 327.604 30.0175 329.255 27.3223C330.906 24.6272 333.355 22.5584 336.619 21.1159C339.884 19.6924 343.927 18.9711 348.71 18.9711C350.873 18.9711 353.037 19.104 355.163 19.3887C357.289 19.6734 359.168 20.053 360.781 20.5655V29.2963C357.422 28.2334 353.683 27.7019 349.583 27.7019C341.289 27.7019 337.132 30.549 337.132 36.224C337.132 37.7614 337.398 39.033 337.91 40.0579C338.423 41.0829 339.296 42.0129 340.491 42.8101C341.706 43.6262 343.376 44.3854 345.521 45.1066L349.241 46.3593C353.967 47.9536 357.554 50.1553 360.003 52.9833C362.432 55.8114 363.666 59.4935 363.666 64.0297C363.666 67.8447 362.831 71.1282 361.142 73.8614C359.452 76.5945 357.004 78.7013 353.777 80.1628C350.551 81.6242 346.66 82.3454 342.124 82.3454C339.846 82.3644 337.455 82.1746 334.949 81.7571Z" fill="white"/>
<path d="M393.388 73.1402V81.5674C391.187 82.0988 388.909 82.3645 386.536 82.3645C381.772 82.3645 378.166 81.1118 375.68 78.5875C373.193 76.0631 371.96 72.0584 371.96 66.5921V44.0818H364.994V36.0153H371.96L373.763 19.7684H382.076V36.0153H393.009V44.0818H382.076V65.3774C382.076 67.4652 382.304 69.1165 382.778 70.3122C383.253 71.5079 383.993 72.362 384.999 72.8745C386.005 73.387 387.353 73.6527 389.042 73.6527C390.067 73.6527 391.509 73.4819 393.388 73.1402Z" fill="white"/>
<path d="M401.057 76.7082C397.906 72.9122 396.331 66.9904 396.331 58.9809C396.331 43.1895 402.424 35.3128 414.59 35.3128C420.436 35.3128 424.934 37.2487 428.104 41.1207C431.254 44.9926 432.849 50.9144 432.849 58.9049C432.849 74.5825 426.756 82.4212 414.609 82.4212C408.725 82.4212 404.208 80.5042 401.057 76.7082ZM418.917 73.3488C420.037 72.4567 420.91 70.8624 421.537 68.5848C422.163 66.3072 422.448 63.1375 422.448 59.0568C422.448 54.8812 422.144 51.6166 421.537 49.2821C420.929 46.9475 420.056 45.3153 418.898 44.4042C417.741 43.4932 416.317 43.0187 414.59 43.0187C412.844 43.0187 411.382 43.4742 410.243 44.3852C409.105 45.2963 408.232 46.8906 407.624 49.2062C407.017 51.5217 406.713 54.7104 406.713 58.8101C406.713 62.9667 407.017 66.1933 407.624 68.4899C408.232 70.8054 409.105 72.3998 410.243 73.3108C411.363 74.2218 412.825 74.6773 414.609 74.6773C416.355 74.6963 417.778 74.2408 418.917 73.3488Z" fill="white"/>
<path d="M439.889 36.0151H448.241L449.038 42.2785H449.531C450.651 39.944 452.151 38.2168 454.067 37.116C455.965 36.0151 458.129 35.4647 460.559 35.4647C461.527 35.4647 462.495 35.5406 463.444 35.7115V45.1445C462.495 44.9737 461.337 44.8978 459.932 44.8978C457.901 44.8978 455.984 45.3723 454.162 46.3023C452.359 47.2323 450.955 48.523 449.987 50.1742V81.5672H439.889V36.0151Z" fill="white"/>
<path d="M499.981 62.0369H476.142C476.256 65.1306 476.712 67.5411 477.528 69.3062C478.344 71.0524 479.578 72.3051 481.248 73.0643C482.918 73.8235 485.139 74.1841 487.929 74.1841C490.795 74.1841 494.116 73.6526 497.874 72.5898V80.8081C495.843 81.3585 493.945 81.7761 492.18 82.0228C490.415 82.2696 488.593 82.4024 486.733 82.4024C481.893 82.4024 477.945 81.6053 474.89 79.992C471.834 78.3787 469.575 75.8543 468.095 72.4C466.614 68.9266 465.874 64.3524 465.874 58.6394C465.874 50.8387 467.411 45.0118 470.486 41.1209C473.561 37.23 477.907 35.294 483.544 35.294C494.515 35.294 500 43.1707 500 58.9241V62.0369H499.981ZM479.578 43.4175C478.534 44.1957 477.699 45.5622 477.091 47.5171C476.484 49.4721 476.161 52.1483 476.123 55.5837H490.453C490.434 52.1673 490.131 49.4721 489.58 47.5171C489.03 45.5622 488.251 44.1957 487.246 43.4175C486.24 42.6393 484.987 42.2407 483.487 42.2407C481.931 42.2407 480.622 42.6393 479.578 43.4175Z" fill="white"/>
<path d="M54.664 0C65.8699 3.11664 76.0796 10.9706 80.313 20.5698C86.7875 36.1531 85.2933 55.8502 78.1963 67.5688C72.2198 77.168 63.0061 82.2794 52.4228 82.1547C35.9876 82.03 22.6651 68.9401 22.5406 52.4842C22.5406 36.0284 35.4895 22.4398 52.4228 22.4398C55.162 22.4398 59.1116 22.8197 63.594 24.6897C63.594 24.6897 60.3715 22.781 52.0955 21.4989C28.3142 18.3823 0.253376 36.4024 6.72787 77.9161C15.6925 93.8733 32.8748 104.719 52.4228 104.595C81.1845 104.47 104.717 80.908 104.592 51.9856C104.592 24.3098 82.0561 0.747994 54.664 0Z" fill="url(#paint0_linear)"/>
<path d="M74.2119 22.0658C70.2276 13.7132 62.01 7.10591 51.9247 4.48793C49.6835 3.8646 47.3178 3.61527 44.7031 3.4906C40.8434 3.4906 37.1081 3.98928 33.2483 4.9866C23.661 7.85392 16.9375 13.4639 12.9532 17.8272C7.84835 23.6864 4.48659 29.7951 2.49444 35.9037C2.49444 36.0283 2.36993 36.153 2.36993 36.4024C2.24542 36.901 1.74738 38.397 1.74738 38.771C1.62287 39.0203 1.62287 39.3943 1.49836 39.6437C1.37385 40.1423 1.24935 40.641 1.12484 41.1397C1.12484 41.2643 1.12484 41.389 1.00033 41.5136C-2.23692 57.5955 3.14093 72.0274 6.37817 77.388C7.18788 78.7288 7.85279 79.8475 8.51915 80.8738C1.1731 40.9808 22.2914 21.9411 46.3218 21.4425C58.8972 21.1931 71.4727 26.3044 77.5736 36.527C77.2001 30.9171 76.8266 27.8004 74.2119 22.0658Z" fill="url(#paint1_linear)"/>
<defs>
<linearGradient id="paint0_linear" x1="74.392" y1="-27.1994" x2="-20.7869" y2="24.1018" gradientUnits="userSpaceOnUse">
<stop stop-color="#FF7BFF"/>
<stop offset="0.350158" stop-color="#AA00FF"/>
<stop offset="0.998876" stop-color="#8800CC"/>
</linearGradient>
<linearGradient id="paint1_linear" x1="28.1275" y1="-11.7575" x2="86.6668" y2="38.2921" gradientUnits="userSpaceOnUse">
<stop offset="0.0354358" stop-color="#FF7BFF"/>
<stop offset="0.576537" stop-color="#8800CC"/>
<stop offset="1" stop-color="#311B92"/>
</linearGradient>
</defs>
</svg>
